<?xml version="1.0" standalone="no"?>
<!DOCTYPE svg PUBLIC "-//W3C//DTD SVG 20010904//EN"
 "http://www.w3.org/TR/2001/REC-SVG-20010904/DTD/svg10.dtd">
<svg version="1.0" xmlns="http://www.w3.org/2000/svg"
 width="551.000000pt" height="551.000000pt" viewBox="0 0 551.000000 551.000000"
 preserveAspectRatio="xMidYMid meet">
<metadata>
Created by potrace 1.14, written by Peter Selinger 2001-2017
</metadata>
<g transform="translate(0.000000,551.000000) scale(0.100000,-0.100000)"
fill="#000000" stroke="none">
<path d="M2909 5416 c-2 -2 -49 -7 -104 -10 -55 -4 -117 -10 -137 -15 -25 -6
-38 -5 -41 2 -2 7 -10 7 -23 2 -10 -5 -28 -9 -39 -10 -11 -1 -38 -6 -60 -12
-22 -6 -71 -11 -110 -12 -38 -2 -78 -7 -90 -13 -11 -7 -42 -13 -70 -14 -27 -2
-61 -5 -76 -7 -30 -5 -71 -26 -50 -27 8 0 12 -3 9 -6 -4 -3 -16 0 -28 6 -16 9
-25 9 -36 -1 -8 -6 -14 -8 -14 -3 0 5 -6 2 -13 -6 -7 -9 -24 -17 -39 -18 -31
-2 -116 -39 -136 -59 -7 -7 -35 -15 -62 -19 -35 -5 -50 -11 -50 -22 0 -12 -3
-12 -15 -2 -10 9 -15 9 -15 1 0 -6 -11 -11 -25 -11 -14 0 -25 -5 -25 -11 0 -5
5 -7 10 -4 6 3 10 1 10 -4 0 -10 -20 -15 -47 -12 -7 1 -13 -3 -13 -10 0 -6 -7
-9 -15 -5 -9 3 -15 0 -15 -9 0 -8 -4 -15 -10 -15 -5 0 -10 4 -10 10 0 5 -7 7
-16 3 -11 -4 -12 -8 -4 -13 14 -9 -3 -23 -35 -27 -11 -2 -28 -12 -37 -24 -10
-11 -22 -18 -27 -15 -5 3 -16 -5 -25 -19 -10 -15 -26 -25 -40 -25 -12 0 -31
-9 -41 -20 -10 -11 -24 -20 -32 -20 -7 0 -13 -7 -13 -15 0 -8 -7 -15 -15 -15
-8 0 -15 -7 -15 -15 0 -9 -8 -14 -22 -12 -17 1 -23 -3 -23 -17 0 -11 -7 -22
-15 -24 -8 -3 -30 -18 -48 -33 -18 -16 -37 -29 -42 -29 -6 0 -10 -6 -10 -14 0
-8 -16 -24 -35 -36 -19 -12 -35 -25 -35 -30 0 -4 -9 -10 -21 -13 -12 -3 -18
-10 -15 -16 4 -5 -5 -22 -19 -37 -14 -15 -25 -22 -25 -15 0 22 -20 10 -26 -16
-10 -40 -25 -58 -35 -41 -6 9 -9 6 -9 -10 0 -12 -15 -37 -35 -56 -19 -18 -32
-36 -29 -39 3 -3 -6 -13 -20 -22 -13 -9 -23 -22 -20 -29 6 -16 -22 -46 -42
-46 -8 0 -14 -7 -14 -15 0 -8 -9 -20 -20 -27 -12 -8 -20 -24 -20 -39 0 -15 -6
-29 -14 -32 -7 -3 -16 -19 -19 -35 -4 -18 -14 -33 -27 -37 -13 -4 -20 -15 -20
-32 0 -15 -11 -36 -25 -49 -14 -13 -25 -34 -25 -49 0 -14 -9 -34 -20 -45 -11
-11 -20 -28 -20 -39 0 -10 -7 -24 -15 -31 -8 -7 -15 -20 -15 -29 0 -9 -10 -36
-22 -61 -11 -25 -25 -52 -29 -61 -4 -9 -3 -21 3 -27 7 -7 3 -17 -11 -31 -12
-12 -21 -32 -21 -45 0 -14 -5 -28 -10 -31 -6 -3 -8 -17 -6 -30 3 -14 0 -27 -5
-31 -5 -3 -7 -9 -4 -14 8 -13 -6 -41 -18 -33 -7 4 -8 0 -4 -11 4 -10 1 -27 -5
-39 -11 -20 -16 -62 -17 -151 0 -15 -5 -34 -11 -42 -8 -9 -8 -19 0 -34 9 -18
8 -24 -5 -34 -14 -10 -16 -25 -13 -74 1 -34 -1 -62 -6 -62 -4 0 -5 -7 -2 -16
4 -9 1 -23 -5 -30 -9 -11 -8 -14 1 -14 8 0 10 -10 7 -32 -3 -18 0 -68 7 -110
7 -43 9 -78 5 -78 -4 0 -6 -24 -4 -52 2 -29 4 -53 6 -53 1 0 3 -23 4 -52 1
-29 7 -58 13 -66 6 -7 14 -36 17 -63 3 -27 8 -65 12 -84 3 -19 6 -39 5 -43 -2
-4 4 -17 12 -29 8 -11 12 -27 9 -34 -3 -8 0 -21 7 -29 7 -8 10 -21 7 -29 -3
-7 -2 -17 3 -22 17 -18 59 -135 53 -149 -3 -8 0 -15 6 -15 6 0 11 -13 11 -30
0 -20 5 -30 15 -30 9 0 15 -9 15 -25 0 -14 5 -25 11 -25 6 0 9 -8 7 -17 -2
-10 7 -28 19 -42 13 -13 23 -35 23 -47 0 -13 5 -24 10 -24 6 0 10 -9 10 -20 0
-11 4 -20 9 -20 5 0 24 -30 42 -67 34 -69 47 -86 61 -77 4 3 8 -1 8 -10 0 -23
32 -77 72 -121 21 -22 38 -45 38 -51 0 -11 35 -56 87 -112 18 -19 33 -39 33
-43 0 -5 9 -9 21 -9 12 0 19 -5 16 -12 -4 -12 107 -128 122 -128 4 0 24 -21
46 -46 22 -25 57 -54 77 -65 21 -10 42 -28 48 -39 6 -11 16 -20 23 -20 7 0 22
-8 33 -18 33 -30 84 -64 84 -55 0 4 6 1 13 -7 18 -23 66 -52 76 -46 5 3 16 -3
26 -14 10 -11 26 -20 36 -20 10 0 22 -6 26 -13 8 -14 134 -77 153 -77 6 0 18
-7 26 -15 9 -8 27 -18 42 -21 15 -4 39 -15 54 -26 15 -10 40 -17 56 -16 17 1
38 -4 47 -12 10 -8 23 -15 29 -15 25 -2 108 -41 159 -74 68 -44 98 -53 146
-42 37 8 42 7 36 -7 -3 -8 -2 -18 3 -21 5 -3 12 -15 15 -26 5 -15 -3 -27 -31
-48 -35 -27 -35 -28 -9 -22 28 8 40 -11 13 -21 -17 -7 -17 -44 0 -44 7 0 14
-3 17 -7 2 -5 2 -2 0 5 -2 8 6 16 17 19 11 3 20 11 20 17 0 20 57 56 88 56 20
0 44 13 75 40 25 22 50 40 55 40 5 0 13 7 16 16 6 15 8 15 26 -1 15 -14 25
-15 49 -7 35 12 47 4 23 -15 -15 -13 -14 -14 13 -8 16 4 33 11 36 17 4 6 15 8
24 4 10 -3 24 -1 31 5 8 6 14 8 14 4 0 -4 6 -2 14 4 7 6 69 13 142 16 71 3
149 10 173 15 24 6 51 9 60 7 9 -2 28 3 44 10 15 8 46 16 70 18 23 2 64 9 92
14 27 5 54 7 58 4 5 -3 6 4 2 16 -4 12 -2 21 4 21 6 0 11 -4 11 -10 0 -5 7
-10 15 -10 8 0 15 -7 15 -15 0 -8 4 -15 8 -15 5 0 7 13 4 30 -3 19 0 30 7 30
7 0 10 -4 6 -9 -3 -6 18 -9 50 -8 30 1 55 5 55 10 0 4 5 5 10 2 6 -4 16 -2 23
3 16 12 57 22 57 14 0 -4 26 -8 58 -10 31 -2 73 -5 92 -6 26 -2 41 3 56 20
l22 23 -22 3 c-13 2 -20 9 -18 19 2 12 -5 15 -30 11 -18 -3 -35 -8 -38 -13 -9
-13 -50 2 -50 17 0 8 -10 14 -25 14 -19 0 -25 -5 -23 -16 2 -10 -2 -19 -9 -21
-18 -6 -3 39 20 59 11 10 27 19 36 19 9 1 21 2 26 4 6 1 17 3 25 4 13 1 13 2
0 11 -12 8 -9 10 12 10 15 0 30 5 33 10 4 6 11 8 16 5 5 -4 9 3 9 14 0 16 6
21 25 21 14 0 25 4 25 8 0 4 15 12 33 18 18 5 31 15 29 23 -5 24 20 43 49 37
22 -4 27 -2 22 9 -3 8 0 15 6 15 7 0 23 12 36 27 21 24 26 26 35 13 8 -13 10
-13 10 1 0 9 13 22 30 29 16 7 28 15 27 19 -3 9 54 81 65 81 5 0 16 7 25 16 9
8 22 13 29 10 8 -3 11 0 8 8 -3 7 11 25 31 40 19 15 33 31 30 36 -3 5 4 11 15
15 11 3 20 10 20 15 0 4 9 10 20 13 11 3 20 13 20 22 0 9 5 25 11 36 9 17 13
18 27 7 12 -10 14 -10 8 0 -4 7 -1 15 9 18 9 4 14 12 12 18 -3 7 10 23 29 35
19 13 34 30 34 37 0 8 5 14 10 14 6 0 10 7 10 15 0 8 5 15 10 15 6 0 10 9 10
20 0 10 18 38 40 61 22 23 37 45 34 50 -2 5 4 14 16 21 11 7 20 20 20 29 0 9
9 27 19 41 11 13 23 41 27 62 4 25 13 40 25 43 12 3 19 14 19 29 0 12 8 29 18
36 23 16 34 55 18 62 -6 2 -3 5 7 5 10 1 16 5 13 10 -3 5 1 23 10 40 9 17 14
37 11 44 -2 6 1 17 7 24 31 35 35 43 30 57 -4 9 -1 16 6 16 7 0 10 7 7 15 -4
8 -2 17 3 20 6 4 10 19 10 34 0 15 9 36 19 45 16 15 18 23 10 43 -7 19 -6 30
4 42 21 25 37 89 23 94 -8 3 -7 8 2 19 7 9 14 44 15 77 1 34 5 61 10 61 5 0 7
16 4 35 -3 19 -1 37 5 41 5 3 8 15 5 25 -3 10 -1 22 5 25 6 4 5 10 -3 15 -10
7 -11 11 -3 17 8 5 11 57 8 172 -5 257 -5 264 -16 278 -6 7 -8 28 -5 47 3 19
2 35 -3 35 -5 0 -7 18 -5 40 2 22 -1 40 -6 40 -5 0 -9 20 -9 44 0 25 -4 48
-10 51 -5 3 -10 19 -10 35 0 16 -4 32 -10 35 -5 3 -10 19 -10 36 0 16 -4 29
-9 29 -5 0 -12 20 -15 45 -4 24 -23 84 -42 132 -19 48 -34 94 -34 100 0 7 -4
13 -8 13 -4 0 -16 22 -26 49 -10 28 -24 55 -32 61 -7 7 -16 27 -20 46 -3 19
-9 34 -13 34 -4 0 -13 16 -20 35 -7 19 -19 35 -28 35 -9 0 -13 6 -9 15 3 8 -3
20 -13 27 -10 7 -21 25 -24 39 -4 14 -20 41 -37 60 -16 19 -30 39 -30 45 0 6
-9 19 -20 29 -11 10 -20 24 -20 30 0 7 -11 21 -25 31 -14 10 -25 22 -25 27 0
5 -16 23 -35 41 -19 19 -35 38 -35 44 0 6 -13 20 -28 31 -16 11 -40 36 -53 55
-13 20 -28 36 -32 36 -5 0 -38 29 -74 65 -36 36 -69 65 -72 65 -4 0 -18 10
-31 23 -58 54 -147 119 -189 138 l-46 21 40 18 c44 20 75 25 75 11 0 -4 20 -4
46 2 36 8 42 13 28 20 -13 8 -14 11 -3 18 23 15 39 10 49 -13 6 -16 9 -18 9
-7 1 25 -25 42 -53 35 -14 -3 -27 -2 -31 3 -5 10 3 13 60 26 25 6 27 8 12 16
-11 7 -24 6 -38 -1 -11 -7 -27 -9 -35 -6 -8 3 -17 -1 -20 -9 -6 -14 -46 -16
-69 -4 -6 3 -21 4 -35 3 -14 -1 -30 3 -37 8 -22 18 -65 16 -84 -3 -11 -11 -19
-14 -19 -8 0 20 -25 34 -63 36 -22 1 -46 8 -55 16 -10 7 -39 15 -67 16 -60 3
-115 20 -115 37 0 6 -13 14 -30 18 -16 3 -43 9 -60 12 -16 4 -30 11 -30 16 0
6 -9 8 -20 5 -12 -3 -23 1 -28 9 -5 9 -33 17 -75 21 -37 3 -70 10 -73 14 -3 5
-18 9 -34 9 -16 0 -32 4 -35 10 -3 5 -28 12 -55 16 -28 4 -50 11 -50 16 0 5
-10 6 -22 3 -17 -6 -20 -4 -15 9 5 13 2 15 -19 10 -17 -4 -24 -3 -22 6 2 7 -9
13 -27 15 -16 2 -46 6 -66 9 -20 3 -38 4 -40 2z m-329 -216 c0 -5 -2 -10 -4
-10 -3 0 -8 5 -11 10 -3 6 -1 10 4 10 6 0 11 -4 11 -10z m470 -16 c0 -8 -4
-12 -10 -9 -5 3 -10 13 -10 21 0 8 5 12 10 9 6 -3 10 -13 10 -21z m354 -59 c3
-8 1 -15 -3 -15 -5 0 -11 7 -15 15 -3 8 -1 15 3 15 5 0 11 -7 15 -15z m589
-22 c-7 -2 -19 -2 -25 0 -7 3 -2 5 12 5 14 0 19 -2 13 -5z m-153 -168 c32 -19
62 -35 66 -35 5 0 22 -11 38 -25 16 -14 35 -25 41 -25 7 0 31 -17 53 -37 43
-41 123 -93 141 -93 6 0 11 -5 11 -12 0 -15 50 -68 64 -68 6 0 17 -9 24 -20 7
-11 18 -20 26 -20 7 0 25 -18 40 -40 14 -22 31 -40 36 -40 6 0 10 -7 10 -15 0
-8 4 -15 9 -15 6 0 18 -13 28 -30 9 -16 23 -30 30 -30 7 0 13 -6 13 -13 0 -7
9 -18 20 -25 11 -7 20 -16 20 -22 0 -15 61 -100 81 -113 11 -7 19 -19 19 -29
0 -9 12 -30 26 -47 14 -17 22 -31 17 -31 -4 0 -1 -6 7 -13 8 -7 21 -23 28 -37
7 -14 19 -35 26 -48 8 -13 22 -43 32 -67 10 -24 21 -42 24 -40 4 2 13 -15 20
-38 7 -23 21 -55 30 -72 9 -16 25 -59 35 -94 9 -36 23 -74 31 -86 7 -11 16
-40 19 -65 3 -25 10 -46 15 -48 6 -2 10 -14 10 -27 0 -13 4 -35 9 -48 21 -54
41 -210 46 -354 2 -62 8 -127 13 -146 7 -24 6 -36 -5 -46 -11 -10 -11 -16 -3
-26 7 -8 8 -19 5 -26 -4 -6 -10 -50 -12 -98 -2 -47 -8 -98 -13 -113 -5 -15 -7
-38 -5 -50 3 -12 1 -26 -4 -32 -4 -6 -11 -35 -14 -65 -4 -30 -11 -57 -16 -61
-6 -3 -8 -20 -6 -38 3 -24 -1 -34 -15 -42 -11 -6 -20 -18 -20 -27 0 -13 3 -13
15 -3 9 8 15 9 15 2 0 -6 -5 -14 -10 -17 -6 -4 -8 -10 -5 -15 3 -5 1 -11 -5
-15 -5 -3 -10 -17 -10 -31 0 -13 -5 -24 -11 -24 -6 0 -8 -8 -4 -19 4 -13 -1
-24 -16 -35 -12 -8 -23 -23 -24 -33 0 -10 -9 -30 -19 -46 -10 -15 -19 -39 -18
-53 0 -14 -9 -30 -19 -37 -14 -8 -15 -15 -8 -30 8 -14 6 -22 -8 -33 -10 -7
-21 -14 -25 -14 -5 0 -8 -9 -8 -20 0 -11 -7 -23 -15 -26 -13 -5 -13 -9 -3 -21
10 -12 9 -18 -7 -29 -43 -29 -48 -36 -33 -46 10 -7 7 -13 -14 -31 -16 -13 -28
-31 -28 -40 0 -10 -12 -29 -26 -44 -14 -14 -30 -36 -35 -50 -8 -21 -12 -23
-24 -13 -13 11 -14 10 -9 -4 4 -10 0 -18 -10 -22 -9 -3 -16 -12 -16 -20 0 -7
-6 -17 -14 -21 -8 -4 -14 -17 -13 -28 1 -11 -4 -20 -11 -20 -7 0 -22 -11 -32
-25 -11 -14 -20 -21 -20 -17 0 4 -6 2 -14 -5 -8 -7 -12 -16 -9 -20 2 -5 -2 -8
-10 -8 -8 0 -17 -9 -20 -21 -3 -12 -10 -18 -16 -14 -6 3 -11 -1 -11 -9 0 -9
-6 -16 -14 -16 -8 0 -16 -10 -18 -22 -2 -14 -12 -24 -28 -28 -16 -4 -24 -12
-22 -23 2 -10 -4 -17 -13 -17 -8 0 -15 -5 -15 -11 0 -5 -4 -7 -10 -4 -5 3 -10
0 -10 -8 0 -14 -27 -32 -42 -29 -5 1 -8 -5 -8 -13 0 -8 -6 -12 -14 -9 -8 3
-15 -3 -18 -14 -3 -10 -24 -28 -46 -38 -23 -10 -42 -25 -42 -31 0 -11 -20 -18
-42 -14 -5 0 -8 -8 -8 -18 0 -11 -5 -23 -10 -26 -6 -3 -10 2 -10 12 0 15 -2
15 -9 3 -6 -8 -7 -18 -5 -22 3 -4 -2 -8 -11 -8 -10 0 -13 5 -9 13 4 7 3 9 -2
4 -5 -5 -10 -13 -10 -18 -1 -5 -2 -13 -3 -19 0 -5 -6 -10 -11 -10 -6 0 -24
-10 -39 -21 -16 -12 -34 -18 -40 -15 -6 4 -11 2 -11 -3 0 -6 -11 -11 -24 -11
-15 0 -30 -10 -41 -27 -16 -24 -19 -25 -30 -10 -9 12 -14 14 -23 5 -7 -7 -12
-18 -12 -25 0 -7 -11 -14 -25 -14 -43 -2 -50 -5 -48 -15 1 -6 -13 -8 -33 -6
-21 3 -34 0 -34 -7 0 -6 -6 -11 -12 -11 -7 0 -24 -9 -38 -20 -14 -11 -35 -20
-48 -20 -12 0 -40 -12 -62 -26 -34 -23 -51 -27 -104 -26 -47 0 -66 -3 -70 -14
-3 -8 -10 -14 -16 -14 -6 0 -8 5 -4 11 3 6 -5 3 -20 -6 -14 -9 -33 -14 -42
-11 -26 10 -114 -5 -114 -19 0 -16 -50 -7 -50 9 0 6 -7 2 -16 -9 -12 -16 -18
-18 -34 -7 -24 15 -50 16 -50 2 0 -6 -21 -8 -55 -5 -31 3 -55 1 -55 -4 0 -5
-18 -8 -40 -8 -46 2 -47 6 -21 56 66 127 107 235 116 309 6 45 17 118 44 276
19 114 20 158 6 316 -23 256 -23 260 7 302 34 46 65 78 76 78 5 0 17 9 27 20
10 11 23 20 30 20 6 0 26 18 44 40 17 22 39 40 47 40 8 0 27 11 42 25 15 14
35 25 44 25 10 0 18 4 18 9 0 5 10 11 22 13 13 2 30 19 44 43 12 22 29 41 38
43 16 3 22 36 17 90 -1 13 3 30 10 38 11 13 1 92 -32 254 -5 25 -12 61 -15 80
-7 52 -24 111 -41 143 -8 16 -15 42 -15 58 -1 16 -7 34 -15 40 -7 6 -13 17
-13 23 -1 6 -21 36 -45 66 -24 30 -64 84 -88 120 -32 47 -62 77 -108 107 -63
41 -231 124 -279 138 -29 9 -90 35 -175 77 -123 60 -328 115 -380 102 -15 -4
-32 -1 -40 6 -19 15 -19 76 -1 111 7 14 19 64 26 110 8 46 18 87 24 91 5 3 11
17 13 29 2 13 8 28 13 33 6 6 10 18 10 28 0 10 5 18 10 18 6 0 10 6 10 14 0 7
7 19 15 26 8 7 15 21 15 31 0 23 31 89 42 89 4 0 8 4 8 9 0 17 124 136 180
174 30 20 61 45 68 56 7 12 18 21 25 21 16 1 87 67 88 83 0 9 2 9 6 0 5 -13
30 -3 64 27 17 14 42 28 114 61 17 8 33 18 37 24 4 5 18 10 30 10 13 0 22 5
21 12 -2 7 9 11 26 11 34 -1 51 8 51 28 0 9 11 14 33 14 18 0 37 4 43 8 5 5
28 15 52 22 23 7 42 19 42 27 0 7 7 13 16 13 14 0 14 -3 4 -15 -7 -8 -8 -15
-2 -15 5 0 15 7 22 15 7 8 16 15 21 15 4 0 20 5 36 12 30 12 43 15 108 19 22
1 45 8 50 15 6 7 26 14 45 17 20 2 50 12 68 21 17 9 34 17 37 17 2 1 35 9 72
19 107 29 146 26 213 -15z m-1306 -1830 c6 -16 -3 -19 -29 -9 -13 5 -14 8 -3
15 19 12 25 11 32 -6z m446 -105 c0 -5 -2 -10 -4 -10 -3 0 -8 5 -11 10 -3 6
-1 10 4 10 6 0 11 -4 11 -10z m-410 -55 c14 -2 39 -7 56 -11 51 -10 125 -88
175 -186 16 -32 29 -66 29 -77 0 -11 5 -23 10 -26 14 -8 13 -74 -2 -116 -12
-35 -88 -115 -120 -125 -10 -3 -18 -9 -18 -14 0 -16 -89 -49 -137 -51 -55 -2
-152 23 -199 52 -17 10 -45 36 -60 57 -26 32 -29 47 -33 120 -1 45 0 90 5 100
4 9 9 28 11 42 2 14 13 44 25 68 11 23 17 50 14 59 -4 10 1 21 13 30 11 7 18
19 15 26 -5 13 2 17 76 51 33 14 72 15 140 1z m-1840 -1035 c0 -5 -4 -10 -10
-10 -5 0 -10 5 -10 10 0 6 5 10 10 10 6 0 10 -4 10 -10z m3120 -1221 c0 -5 -4
-9 -10 -9 -5 0 -10 7 -10 16 0 8 5 12 10 9 6 -3 10 -10 10 -16z"/>
<path d="M3224 1942 c-77 -32 -124 -109 -124 -202 0 -10 -5 -22 -11 -26 -7 -4
-9 -22 -5 -48 3 -22 7 -57 9 -76 2 -20 9 -45 14 -55 6 -11 14 -38 18 -60 3
-22 13 -47 20 -55 7 -8 15 -24 19 -35 3 -11 16 -25 28 -30 13 -6 34 -31 48
-57 32 -60 62 -82 130 -99 74 -18 150 -15 190 8 18 10 43 24 55 30 43 24 92
78 103 113 19 61 24 153 12 185 -7 17 -13 46 -15 65 -3 47 -57 160 -76 160 -5
0 -9 6 -9 13 0 38 -166 132 -315 178 -38 12 -42 11 -91 -9z"/>
<path d="M1800 5220 c-8 -5 -10 -10 -5 -10 6 0 17 5 25 10 8 5 11 10 5 10 -5
0 -17 -5 -25 -10z"/>
<path d="M2230 320 c0 -5 5 -10 11 -10 5 0 7 5 4 10 -3 6 -8 10 -11 10 -2 0
-4 -4 -4 -10z"/>
<path d="M2286 307 c-28 -24 -33 -42 -14 -53 7 -5 10 -2 6 7 -2 8 4 22 14 32
10 9 18 13 18 7 0 -5 5 -10 10 -10 12 0 13 27 1 34 -4 3 -20 -5 -35 -17z"/>
<path d="M2360 280 c0 -5 4 -10 9 -10 6 0 13 5 16 10 3 6 -1 10 -9 10 -9 0
-16 -4 -16 -10z"/>
</g>
</svg>
